# xmcd
#
# Track frame offsets:
#	150
#	25799
#	41788
#	47760
#	70695
#	92493
#	108300
#	115089
#	137298
#	150685
#	175966
#	206786
#	227455
#	237423
#	274414
#	296131
#
# Disc length: 4376 seconds
#
# Revision: 0
# Processed by: cddbd v1.5PL3 Copyright (c) Steve Scherf et al.
# Submitted via: dBpowerAMP V4.0
#
DISCID=de111610
DTITLE=Idiom Creaks - Room From Another Music
DYEAR=2004
DGENRE=Rock
TTITLE0=Jet Anywhere
TTITLE1=Hometown
TTITLE2=Circle Commercial
TTITLE3=Obviously Trippy Ego
TTITLE4=Interviewing The Tree
TTITLE5=As We Go To The Amusement Park
TTITLE6=One or Two Things
TTITLE7=Jean Luke's Room
TTITLE8=Revolution in Toilets
TTITLE9=One Guy One Finger
TTITLE10=The Agreement Argument
TTITLE11=Check This In
TTITLE12=Nothe But Still Love
TTITLE13=The Unrivaled King of the Beautiful Lonely Jungle
TTITLE14=You Feel Good Don't You
TTITLE15=What Do You Think Now?
EXTD=
EXTT0=
EXTT1=
EXTT2=
EXTT3=
EXTT4=
EXTT5=
EXTT6=
EXTT7=
EXTT8=
EXTT9=
EXTT10=
EXTT11=
EXTT12=
EXTT13=
EXTT14=
EXTT15=
PLAYORDER=
